<svg width="17" height="15" viewBox="0 0 17 15" fill="none" xmlns="http://www.w3.org/2000/svg">
<path d="M1.57881 1.27745C2.49239 0.456303 3.69262 -4.68412e-06 4.93891 0C5.60349 0.00046465 6.26115 0.13082 6.87251 0.383262C7.48387 0.635704 8.03636 1.00504 8.49692 1.46917L8.49894 1.46721L8.50095 1.46915C8.96149 1.00503 9.51397 0.635702 10.1253 0.383269C10.7367 0.130836 11.3943 0.0004909 12.0589 3.49939e-05C13.3691 4.94757e-05 14.6256 0.504234 15.5521 1.40167C16.4785 2.29911 16.999 3.51629 16.999 4.78545C16.9986 5.42922 16.864 6.06627 16.6034 6.65848C16.3428 7.25068 15.9615 7.78587 15.4824 8.23198L15.4844 8.23395L8.4992 15.0004L1.5134 8.2334L1.51385 8.23297C1.03481 7.78652 0.653715 7.25103 0.393379 6.65854C0.133043 6.06605 -0.00117493 5.42877 -0.00123787 4.78485C-0.00124931 4.1263 0.139065 3.47483 0.410919 2.87123C0.682774 2.26762 1.08032 1.72487 1.57867 1.27694L1.57881 1.27745Z" fill="#C92E2E"/>
</svg>
