<svg width="153" height="44" viewBox="0 0 153 44" fill="none" xmlns="http://www.w3.org/2000/svg">
<path d="M0.888 43.698C1.104 42.402 1.338 41.088 1.59 39.756C1.878 38.424 2.22 36.948 2.616 35.328C3.048 33.708 3.57 31.854 4.182 29.766C4.83 27.678 5.604 25.248 6.504 22.476C5.964 22.512 5.37 22.566 4.722 22.638C4.11 22.71 3.534 22.764 2.994 22.8C2.994 21.648 3.426 20.766 4.29 20.154C5.154 19.542 6.288 19.092 7.692 18.804C7.836 18.3 7.962 17.904 8.07 17.616C8.178 17.328 8.304 16.968 8.448 16.536C8.592 16.104 8.808 15.51 9.096 14.754C9.384 13.962 9.762 12.846 10.23 11.406C10.734 9.966 11.382 8.076 12.174 5.736C12.246 5.556 12.372 5.196 12.552 4.656C12.732 4.116 12.822 3.612 12.822 3.144C12.822 2.856 12.768 2.658 12.66 2.55C12.588 2.442 12.408 2.388 12.12 2.388C11.4 2.388 10.662 2.712 9.906 3.36C9.186 4.008 8.52 4.836 7.908 5.844C7.296 6.816 6.81 7.842 6.45 8.922C6.09 9.966 5.91 10.902 5.91 11.73C5.91 12.018 5.946 12.342 6.018 12.702C6.09 13.062 6.234 13.548 6.45 14.16C4.938 14.16 3.84 13.836 3.156 13.188C2.508 12.504 2.184 11.64 2.184 10.596C2.184 9.372 2.544 8.148 3.264 6.924C4.02 5.7 4.974 4.584 6.126 3.576C7.314 2.532 8.556 1.704 9.852 1.092C11.184 0.443999 12.408 0.119998 13.524 0.119998C14.676 0.119998 15.468 0.425999 15.9 1.038C16.332 1.65 16.548 2.334 16.548 3.09C16.548 3.486 16.494 3.882 16.386 4.278C16.314 4.674 16.224 5.052 16.116 5.412L12.174 18.372C12.606 18.336 13.038 18.318 13.47 18.318C13.938 18.318 14.406 18.318 14.874 18.318C16.638 18.318 18.294 18.354 19.842 18.426C21.39 18.498 22.884 18.606 24.324 18.75C25.224 15.726 25.98 13.242 26.592 11.298C27.24 9.354 27.798 7.752 28.266 6.492C28.77 5.196 29.22 4.062 29.616 3.09C29.76 2.802 29.958 2.424 30.21 1.956C30.498 1.452 30.894 1.02 31.398 0.659998C31.938 0.263999 32.64 0.0659992 33.504 0.0659992C33.036 1.326 32.46 3 31.776 5.088C31.128 7.14 30.462 9.39 29.778 11.838C29.094 14.25 28.446 16.644 27.834 19.02C28.338 19.02 29.04 19.056 29.94 19.128C30.876 19.164 31.74 19.182 32.532 19.182C31.416 20.298 30.426 21 29.562 21.288C28.698 21.54 27.906 21.666 27.186 21.666C26.79 23.322 26.43 24.906 26.106 26.418C25.782 27.93 25.512 29.334 25.296 30.63C24.864 32.934 24.54 34.95 24.324 36.678C24.144 38.37 24.054 39.756 24.054 40.836C24.054 41.412 24.072 41.916 24.108 42.348C24.18 42.816 24.252 43.266 24.324 43.698C22.488 43.518 21.228 43.068 20.544 42.348C19.896 41.664 19.572 40.44 19.572 38.676C19.572 37.848 19.626 36.93 19.734 35.922C19.878 34.914 20.112 33.726 20.436 32.358C20.724 31.026 21.12 29.496 21.624 27.768C22.128 26.04 22.74 24.024 23.46 21.72C21.264 21.72 19.446 21.738 18.006 21.774C16.566 21.81 15.306 21.846 14.226 21.882C13.146 21.918 12.066 21.99 10.986 22.098C10.95 22.242 10.86 22.548 10.716 23.016C10.572 23.484 10.32 24.312 9.96 25.5C9.6 26.688 9.06 28.434 8.34 30.738C7.62 33.042 6.648 36.138 5.424 40.026C5.028 41.358 4.344 42.294 3.372 42.834C2.4 43.41 1.572 43.698 0.888 43.698ZM34.9995 40.728C33.3795 40.728 32.2635 40.188 31.6515 39.108C31.0755 38.064 30.7875 36.912 30.7875 35.652C30.7875 34.5 30.9675 33.33 31.3275 32.142C31.6875 30.918 32.1735 29.784 32.7855 28.74C33.4335 27.696 34.1355 26.868 34.8915 26.256C35.6835 25.608 36.4755 25.284 37.2675 25.284C37.5195 25.284 37.8075 25.338 38.1315 25.446C38.4915 25.518 38.7435 25.644 38.8875 25.824C38.4555 26.364 38.0055 27.03 37.5375 27.822C37.1055 28.614 36.6915 29.46 36.2955 30.36C35.9355 31.224 35.6475 32.106 35.4315 33.006C35.2155 33.906 35.1075 34.734 35.1075 35.49C35.1075 36.21 35.2335 36.804 35.4855 37.272C35.7735 37.74 36.2595 37.974 36.9435 37.974C37.6275 37.974 38.4375 37.596 39.3735 36.84C40.3455 36.048 41.2635 35.148 42.1275 34.14C40.9755 33.096 40.1475 31.962 39.6435 30.738C39.1395 29.478 38.8875 27.966 38.8875 26.202C38.8875 25.446 39.0675 24.582 39.4275 23.61C39.8235 22.638 40.4355 21.792 41.2635 21.072C42.1275 20.352 43.2795 19.992 44.7195 19.992C46.2675 19.992 47.3475 20.424 47.9595 21.288C48.6075 22.152 48.9315 23.178 48.9315 24.366C48.9315 25.698 48.5715 27.192 47.8515 28.848C47.1675 30.504 46.3395 32.07 45.3675 33.546C45.7995 33.762 46.3035 33.87 46.8795 33.87C47.4195 33.87 48.0675 33.744 48.8235 33.492C49.5795 33.24 50.3175 32.826 51.0375 32.25C51.7575 31.638 52.3335 30.828 52.7655 29.82L53.7375 30.522C52.9455 32.358 51.8835 33.708 50.5515 34.572C49.2555 35.4 47.9775 35.814 46.7175 35.814C46.2495 35.814 45.7815 35.778 45.3135 35.706C44.8455 35.598 44.4135 35.472 44.0175 35.328C42.7935 36.768 41.3895 38.028 39.8055 39.108C38.2215 40.188 36.6195 40.728 34.9995 40.728ZM43.5315 32.412C44.3955 31.152 45.1335 29.802 45.7455 28.362C46.3575 26.922 46.6635 25.59 46.6635 24.366C46.6635 23.538 46.5375 22.944 46.2855 22.584C46.0335 22.188 45.6555 21.99 45.1515 21.99C44.4675 21.99 43.7655 22.476 43.0455 23.448C42.3255 24.42 41.9655 25.644 41.9655 27.12C41.9655 27.876 42.0915 28.794 42.3435 29.874C42.6315 30.954 43.0275 31.8 43.5315 32.412ZM56.1713 40.62C54.4793 40.62 53.2913 40.062 52.6073 38.946C51.9593 37.794 51.6353 36.444 51.6353 34.896C51.6353 33.132 51.9593 31.062 52.6073 28.686C53.2553 26.31 54.1013 23.826 55.1453 21.234C56.2253 18.606 57.3953 16.05 58.6553 13.566C59.9513 11.046 61.2473 8.778 62.5433 6.762C63.8393 4.746 65.0273 3.144 66.1073 1.956C67.2233 0.731998 68.1233 0.119998 68.8073 0.119998C69.2753 0.119998 69.6713 0.371998 69.9953 0.875998C70.3193 1.344 70.5713 1.92 70.7513 2.604C70.9673 3.252 71.0753 3.864 71.0753 4.44C71.0753 5.412 70.8233 6.69 70.3193 8.274C69.8513 9.822 69.1673 11.532 68.2673 13.404C67.4033 15.276 66.3593 17.202 65.1353 19.182C63.9473 21.126 62.6153 22.98 61.1393 24.744C59.6993 26.508 58.1513 28.038 56.4953 29.334C56.3513 30.234 56.2073 31.134 56.0633 32.034C55.9553 32.898 55.9013 33.69 55.9013 34.41C55.9013 35.706 56.1173 36.66 56.5493 37.272C56.9813 37.848 57.5393 38.136 58.2233 38.136C59.1233 38.136 60.0413 37.722 60.9773 36.894C61.9493 36.03 62.8673 34.95 63.7313 33.654C64.6313 32.322 65.4053 30.954 66.0533 29.55L67.3493 30.252C65.8013 33.456 64.0733 35.994 62.1653 37.866C60.2573 39.702 58.2593 40.62 56.1713 40.62ZM57.4673 25.986C58.6913 24.654 59.8433 23.214 60.9233 21.666C62.0393 20.082 63.0473 18.48 63.9473 16.86C64.8833 15.24 65.6933 13.674 66.3773 12.162C67.0613 10.65 67.5833 9.3 67.9433 8.112C68.3393 6.888 68.5553 5.916 68.5913 5.196C68.5913 5.16 68.5913 5.142 68.5913 5.142C68.5913 5.106 68.5913 5.07 68.5913 5.034C68.3033 5.034 67.8353 5.448 67.1873 6.276C66.5753 7.068 65.8373 8.166 64.9733 9.57C64.1093 10.974 63.2093 12.576 62.2733 14.376C61.3733 16.176 60.4913 18.084 59.6273 20.1C58.7993 22.08 58.0793 24.042 57.4673 25.986ZM68.3277 40.728C66.7077 40.728 65.5917 40.188 64.9797 39.108C64.4037 38.064 64.1157 36.912 64.1157 35.652C64.1157 34.5 64.2957 33.33 64.6557 32.142C65.0157 30.918 65.5017 29.784 66.1137 28.74C66.7617 27.696 67.4637 26.868 68.2197 26.256C69.0117 25.608 69.8037 25.284 70.5957 25.284C70.8477 25.284 71.1357 25.338 71.4597 25.446C71.8197 25.518 72.0717 25.644 72.2157 25.824C71.7837 26.364 71.3337 27.03 70.8657 27.822C70.4337 28.614 70.0197 29.46 69.6237 30.36C69.2637 31.224 68.9757 32.106 68.7597 33.006C68.5437 33.906 68.4357 34.734 68.4357 35.49C68.4357 36.21 68.5617 36.804 68.8137 37.272C69.1017 37.74 69.5877 37.974 70.2717 37.974C70.9557 37.974 71.7657 37.596 72.7017 36.84C73.6737 36.048 74.5917 35.148 75.4557 34.14C74.3037 33.096 73.4757 31.962 72.9717 30.738C72.4677 29.478 72.2157 27.966 72.2157 26.202C72.2157 25.446 72.3957 24.582 72.7557 23.61C73.1517 22.638 73.7637 21.792 74.5917 21.072C75.4557 20.352 76.6077 19.992 78.0477 19.992C79.5957 19.992 80.6757 20.424 81.2877 21.288C81.9357 22.152 82.2597 23.178 82.2597 24.366C82.2597 25.698 81.8997 27.192 81.1797 28.848C80.4957 30.504 79.6677 32.07 78.6957 33.546C79.1277 33.762 79.6317 33.87 80.2077 33.87C80.7477 33.87 81.3957 33.744 82.1517 33.492C82.9077 33.24 83.6457 32.826 84.3657 32.25C85.0857 31.638 85.6617 30.828 86.0937 29.82L87.0657 30.522C86.2737 32.358 85.2117 33.708 83.8797 34.572C82.5837 35.4 81.3057 35.814 80.0457 35.814C79.5777 35.814 79.1097 35.778 78.6417 35.706C78.1737 35.598 77.7417 35.472 77.3457 35.328C76.1217 36.768 74.7177 38.028 73.1337 39.108C71.5497 40.188 69.9477 40.728 68.3277 40.728ZM76.8597 32.412C77.7237 31.152 78.4617 29.802 79.0737 28.362C79.6857 26.922 79.9917 25.59 79.9917 24.366C79.9917 23.538 79.8657 22.944 79.6137 22.584C79.3617 22.188 78.9837 21.99 78.4797 21.99C77.7957 21.99 77.0937 22.476 76.3737 23.448C75.6537 24.42 75.2937 25.644 75.2937 27.12C75.2937 27.876 75.4197 28.794 75.6717 29.874C75.9597 30.954 76.3557 31.8 76.8597 32.412ZM88.5815 40.62C87.8975 40.62 87.1955 40.44 86.4755 40.08C85.7915 39.756 85.2155 39.234 84.7475 38.514C84.2435 37.794 83.9915 36.876 83.9915 35.76C83.9915 34.572 84.2795 33.24 84.8555 31.764C85.4315 30.288 86.2055 28.812 87.1775 27.336C88.1855 25.86 89.3375 24.51 90.6335 23.286C91.9655 22.062 93.3695 21.072 94.8455 20.316C96.3215 19.56 97.8155 19.182 99.3275 19.182C100.155 19.182 100.803 19.326 101.271 19.614C101.739 19.866 101.973 20.298 101.973 20.91C101.973 21.09 101.937 21.306 101.865 21.558C101.793 21.774 101.613 21.972 101.325 22.152C101.181 21.936 100.929 21.792 100.569 21.72C100.209 21.612 99.8315 21.558 99.4355 21.558C98.2475 21.558 97.1135 21.9 96.0335 22.584C94.9535 23.232 93.9635 24.078 93.0635 25.122C92.1635 26.166 91.3715 27.3 90.6875 28.524C90.0395 29.748 89.5355 30.936 89.1755 32.088C88.8155 33.204 88.6355 34.176 88.6355 35.004C88.6355 35.688 88.7795 36.246 89.0675 36.678C89.3555 37.074 89.7875 37.272 90.3635 37.272C91.3355 37.272 92.4875 36.714 93.8195 35.598C95.1875 34.446 96.5735 32.808 97.9775 30.684C99.4175 28.524 100.713 25.95 101.865 22.962C102.657 20.91 103.485 18.822 104.349 16.698C105.213 14.538 106.077 12.468 106.941 10.488C107.805 8.508 108.651 6.744 109.479 5.196C110.343 3.648 111.153 2.424 111.909 1.524C112.701 0.587999 113.421 0.119998 114.069 0.119998C114.465 0.119998 114.807 0.281999 115.095 0.605999C115.419 0.893999 115.581 1.272 115.581 1.74C115.581 2.352 115.275 3.342 114.663 4.71C114.087 6.042 113.331 7.644 112.395 9.516C111.495 11.388 110.505 13.422 109.425 15.618C108.381 17.778 107.391 20.01 106.455 22.314C105.555 24.582 104.799 26.832 104.187 29.064C103.611 31.26 103.323 33.33 103.323 35.274C103.323 36.138 103.395 36.732 103.539 37.056C103.719 37.344 104.007 37.488 104.403 37.488C105.195 37.488 106.077 37.182 107.049 36.57C108.021 35.958 109.011 35.058 110.019 33.87C111.027 32.646 111.945 31.188 112.773 29.496L113.799 30.36C113.007 32.34 111.999 34.086 110.775 35.598C109.551 37.11 108.237 38.28 106.833 39.108C105.429 39.972 104.043 40.404 102.675 40.404C101.199 40.404 100.173 39.936 99.5975 39C99.0215 38.064 98.7335 36.966 98.7335 35.706C98.7335 35.13 98.7695 34.554 98.8415 33.978C98.9495 33.366 99.0575 32.772 99.1655 32.196C98.0495 33.816 96.8615 35.274 95.6015 36.57C94.3775 37.83 93.1715 38.82 91.9835 39.54C90.7955 40.26 89.6615 40.62 88.5815 40.62ZM114.945 40.728C113.325 40.728 112.209 40.188 111.597 39.108C111.021 38.064 110.733 36.912 110.733 35.652C110.733 34.5 110.913 33.33 111.273 32.142C111.633 30.918 112.119 29.784 112.731 28.74C113.379 27.696 114.081 26.868 114.837 26.256C115.629 25.608 116.421 25.284 117.213 25.284C117.465 25.284 117.753 25.338 118.077 25.446C118.437 25.518 118.689 25.644 118.833 25.824C118.401 26.364 117.951 27.03 117.483 27.822C117.051 28.614 116.637 29.46 116.241 30.36C115.881 31.224 115.593 32.106 115.377 33.006C115.161 33.906 115.053 34.734 115.053 35.49C115.053 36.21 115.179 36.804 115.431 37.272C115.719 37.74 116.205 37.974 116.889 37.974C117.573 37.974 118.383 37.596 119.319 36.84C120.291 36.048 121.209 35.148 122.073 34.14C120.921 33.096 120.093 31.962 119.589 30.738C119.085 29.478 118.833 27.966 118.833 26.202C118.833 25.446 119.013 24.582 119.373 23.61C119.769 22.638 120.381 21.792 121.209 21.072C122.073 20.352 123.225 19.992 124.665 19.992C126.213 19.992 127.293 20.424 127.905 21.288C128.553 22.152 128.877 23.178 128.877 24.366C128.877 25.698 128.517 27.192 127.797 28.848C127.113 30.504 126.285 32.07 125.313 33.546C125.745 33.762 126.249 33.87 126.825 33.87C127.365 33.87 128.013 33.744 128.769 33.492C129.525 33.24 130.263 32.826 130.983 32.25C131.703 31.638 132.279 30.828 132.711 29.82L133.683 30.522C132.891 32.358 131.829 33.708 130.497 34.572C129.201 35.4 127.923 35.814 126.663 35.814C126.195 35.814 125.727 35.778 125.259 35.706C124.791 35.598 124.359 35.472 123.963 35.328C122.739 36.768 121.335 38.028 119.751 39.108C118.167 40.188 116.565 40.728 114.945 40.728ZM123.477 32.412C124.341 31.152 125.079 29.802 125.691 28.362C126.303 26.922 126.609 25.59 126.609 24.366C126.609 23.538 126.483 22.944 126.231 22.584C125.979 22.188 125.601 21.99 125.097 21.99C124.413 21.99 123.711 22.476 122.991 23.448C122.271 24.42 121.911 25.644 121.911 27.12C121.911 27.876 122.037 28.794 122.289 29.874C122.577 30.954 122.973 31.8 123.477 32.412ZM137.791 41.754C135.991 41.754 134.533 41.376 133.417 40.62C132.337 39.9 131.563 38.982 131.095 37.866C130.627 36.714 130.393 35.544 130.393 34.356C130.393 33.312 130.537 32.502 130.825 31.926C131.113 31.35 131.473 30.936 131.905 30.684C132.337 30.396 132.733 30.18 133.093 30.036C133.489 29.892 133.777 29.73 133.957 29.55C134.857 28.614 135.775 27.534 136.711 26.31C137.683 25.05 138.511 23.664 139.195 22.152V21.612C139.195 20.172 139.429 19.164 139.897 18.588C140.401 17.976 140.977 17.67 141.625 17.67C142.057 17.67 142.363 17.778 142.543 17.994C142.759 18.21 142.885 18.462 142.921 18.75C142.921 18.966 142.867 19.218 142.759 19.506C142.687 19.794 142.651 20.19 142.651 20.694C142.651 21.774 142.903 23.016 143.407 24.42C143.947 25.788 144.469 27.246 144.973 28.794C145.513 30.342 145.783 31.926 145.783 33.546C145.783 33.978 145.765 34.374 145.729 34.734C145.693 35.094 145.639 35.436 145.567 35.76C146.683 35.472 147.781 34.86 148.861 33.924C149.941 32.952 150.967 31.53 151.939 29.658L152.587 30.144C151.903 32.196 150.913 33.852 149.617 35.112C148.321 36.336 146.809 37.092 145.081 37.38C144.505 38.856 143.551 39.954 142.219 40.674C140.923 41.394 139.447 41.754 137.791 41.754ZM137.413 39.378C138.133 39.378 138.799 39.198 139.411 38.838C140.023 38.478 140.509 37.956 140.869 37.272C139.393 36.948 138.061 36.372 136.873 35.544C135.685 34.716 134.767 33.87 134.119 33.006C133.615 33.114 133.363 33.6 133.363 34.464C133.363 35.652 133.705 36.768 134.389 37.812C135.073 38.856 136.081 39.378 137.413 39.378ZM141.301 35.652C141.373 35.4 141.409 35.112 141.409 34.788C141.445 34.428 141.463 34.158 141.463 33.978C141.427 32.358 141.211 30.756 140.815 29.172C140.419 27.588 140.023 25.968 139.627 24.312C138.979 25.428 138.223 26.634 137.359 27.93C136.495 29.226 135.685 30.27 134.929 31.062C135.505 32.034 136.351 32.952 137.467 33.816C138.583 34.68 139.861 35.292 141.301 35.652Z" fill="#F2822C"/>
</svg>
