<svg width="12" height="16" viewBox="0 0 12 16" fill="none" xmlns="http://www.w3.org/2000/svg">
<g clip-path="url(#clip0_240_899)">
<path d="M8.1071 15.1133H2.57024C2.30494 15.1133 2.08984 14.9056 2.08984 14.6493V5.93435C2.08984 5.6781 2.30494 5.47034 2.57024 5.47034H8.1071C8.37239 5.47034 8.58749 5.6781 8.58749 5.93435V14.6493C8.58749 14.9056 8.37239 15.1133 8.1071 15.1133Z" fill="#2A2D34"/>
<path d="M5.33906 5.47048C6.87062 5.47048 8.11219 4.27123 8.11219 2.79188C8.11219 1.31253 6.87062 0.113281 5.33906 0.113281C3.80749 0.113281 2.56592 1.31253 2.56592 2.79188C2.56592 4.27123 3.80749 5.47048 5.33906 5.47048Z" fill="#2A2D34"/>
</g>
<defs>
<clipPath id="clip0_240_899">
<rect width="12" height="15" fill="white" transform="translate(0 0.113281)"/>
</clipPath>
</defs>
</svg>
