<svg width="15" height="12" viewBox="0 0 15 12" fill="none" xmlns="http://www.w3.org/2000/svg">
<path d="M7.13313 1.13285C7.27251 0.81204 7.72748 0.81204 7.86687 1.13285L9.30383 4.44019C9.3673 4.58628 9.51141 4.68079 9.6707 4.68079L14.0099 4.68079C14.4247 4.68079 14.5653 5.23425 14.2009 5.43226L10.9097 7.22052C10.7275 7.3195 10.6512 7.54124 10.7338 7.73139L12.0332 10.7223C12.1848 11.0712 11.8097 11.4147 11.4754 11.2331L7.69096 9.17689C7.57187 9.11219 7.42812 9.11219 7.30903 9.17689L3.52459 11.2331C3.19032 11.4147 2.81516 11.0712 2.96675 10.7223L4.26622 7.73139C4.34883 7.54124 4.27248 7.3195 4.09031 7.22052L0.799077 5.43226C0.434645 5.23425 0.575292 4.68079 0.990043 4.68079L5.3293 4.68079C5.48858 4.68079 5.63269 4.58628 5.69616 4.44019L7.13313 1.13285Z" fill="#F2822C"/>
</svg>
